<?xml version="1.0" encoding="UTF-8" standalone="no"?>
<svg
   width="24"
   height="24"
   viewBox="0 0 24 24"
   fill="none"
   stroke="#000"
   stroke-width="2"
   stroke-linecap="round"
   stroke-linejoin="round"
   version="1.1"
   id="svg1"
   sodipodi:docname="back.svg"
   xml:space="preserve"
   inkscape:version="1.3 (0e150ed6c4, 2023-07-21)"
   xmlns:inkscape="http://www.inkscape.org/namespaces/inkscape"
   xmlns:sodipodi="http://sodipodi.sourceforge.net/DTD/sodipodi-0.dtd"
   xmlns="http://www.w3.org/2000/svg"
   xmlns:svg="http://www.w3.org/2000/svg"><defs
     id="defs1" /><sodipodi:namedview
     id="namedview1"
     pagecolor="#ffffff"
     bordercolor="#000000"
     borderopacity="0.25"
     inkscape:showpageshadow="2"
     inkscape:pageopacity="0.0"
     inkscape:pagecheckerboard="0"
     inkscape:deskcolor="#d1d1d1"
     inkscape:zoom="24.159482"
     inkscape:cx="7.4711868"
     inkscape:cy="13.617842"
     inkscape:window-width="1920"
     inkscape:window-height="1011"
     inkscape:window-x="0"
     inkscape:window-y="0"
     inkscape:window-maximized="1"
     inkscape:current-layer="svg1" /><path
     style="fill:#020202;stroke:none;stroke-width:3.79901"
     d="m 15.692412,2.0395202 c -0.923471,0.2161706 -1.81855,1.5590361 -2.467454,2.2163217 L 8.413424,9.129533 c -0.9176125,0.929469 -1.8581334,1.754734 -1.7166971,3.186645 0.093645,0.94807 0.716058,1.548246 1.346579,2.186913 l 2.2207081,2.249394 4.132983,4.186376 c 0.594448,0.602127 1.232024,1.360538 2.159023,0.939129 1.637014,-0.744179 0.23372,-2.326953 -0.49349,-3.063558 L 11.250996,13.940742 9.9555819,12.628594 C 9.8064139,12.477481 9.5308134,12.282113 9.4748486,12.066245 9.4172931,11.844227 9.6993294,11.63905 9.8322099,11.503895 L 11.250996,10.066782 C 13.127434,8.166103 15.168909,6.3419908 16.914715,4.3183248 17.74361,3.3575075 17.033278,1.7256455 15.692412,2.0395202 Z"
     id="path2" /></svg>
