<?xml version="1.0" encoding="utf-8"?>
<!-- Svg Vector Icons : http://www.onlinewebfonts.com/icon -->
<!DOCTYPE svg PUBLIC "-//W3C//DTD SVG 1.1//EN" "http://www.w3.org/Graphics/SVG/1.1/DTD/svg11.dtd">
<svg version="1.1" xmlns="http://www.w3.org/2000/svg" xmlns:xlink="http://www.w3.org/1999/xlink" x="0px" y="0px" viewBox="0 0 1000 1000" enable-background="new 0 0 1000 1000" xml:space="preserve">
<metadata> Svg Vector Icons : http://www.onlinewebfonts.com/icon </metadata>
<g><path d="M10,60.6L10,60.6L10,60.6z"/><path d="M365.1,130.7c16.4,0,30.5,5.7,42.1,17.1c11.7,11.4,17.5,25.3,17.5,41.7v236.7c0,16.4-5.8,30.5-17.5,42.1c-11.7,11.7-25.7,17.5-42.1,17.5H128.3c-16.4,0-30.3-5.8-41.7-17.5s-17-25.7-17.1-42.1V189.4c0-16.4,5.7-30.3,17.1-41.7s25.3-17,41.7-17.1L365.1,130.7L365.1,130.7z M365.1,604.2c16.4,0,30.5,5.7,42.1,17.1c11.7,11.4,17.5,25.3,17.5,41.7v237.7c0,16.4-5.8,30.3-17.5,41.7c-11.7,11.4-25.7,17-42.1,17.1H128.3c-16.4,0-30.3-5.7-41.7-17.1s-17-25.3-17.1-41.7V662.9c0-16.4,5.7-30.3,17.1-41.7s25.3-17,41.7-17.1H365.1z M839.4,604.2c16.4,0,30.3,5.7,41.7,17.1c11.4,11.4,17,25.3,17.1,41.7v237.7c0,16.4-5.7,30.3-17.1,41.7c-11.4,11.4-25.3,17-41.7,17.1H602.7c-16.4,0-30.5-5.7-42.1-17.1c-11.7-11.4-17.5-25.3-17.5-41.7V662.9c0-16.4,5.8-30.3,17.5-41.7c11.7-11.4,25.7-17,42.1-17.1H839.4L839.4,604.2z M971.1,234.9c12.6,12.6,18.9,27.5,18.9,44.5c0,17-6.3,31.6-18.9,43.6L794.9,499.1c-12.6,12.6-27.3,18.9-44,18.9s-31.4-6.3-44-18.9L530.8,322.9c-12-12-18-26.5-18-43.6c0-17,6-31.9,18-44.5L706.9,58.7c12.6-12,27.3-18,44-18s31.4,6,44,18L971.1,234.9z"/></g>
</svg>