<?xml version="1.0" encoding="UTF-8" standalone="no"?>
<svg
   width="24"
   height="24"
   viewBox="0 0 24 24"
   fill="none"
   stroke="#000"
   stroke-width="2"
   stroke-linecap="round"
   stroke-linejoin="round"
   version="1.1"
   id="svg1"
   sodipodi:docname="forward.svg"
   xml:space="preserve"
   inkscape:version="1.3 (0e150ed6c4, 2023-07-21)"
   xmlns:inkscape="http://www.inkscape.org/namespaces/inkscape"
   xmlns:sodipodi="http://sodipodi.sourceforge.net/DTD/sodipodi-0.dtd"
   xmlns="http://www.w3.org/2000/svg"
   xmlns:svg="http://www.w3.org/2000/svg"><defs
     id="defs1" /><sodipodi:namedview
     id="namedview1"
     pagecolor="#ffffff"
     bordercolor="#000000"
     borderopacity="0.25"
     inkscape:showpageshadow="2"
     inkscape:pageopacity="0.0"
     inkscape:pagecheckerboard="0"
     inkscape:deskcolor="#d1d1d1"
     inkscape:zoom="24.159482"
     inkscape:cx="7.4711868"
     inkscape:cy="13.617842"
     inkscape:window-width="1920"
     inkscape:window-height="1011"
     inkscape:window-x="0"
     inkscape:window-y="0"
     inkscape:window-maximized="1"
     inkscape:current-layer="svg1" /><path
     style="fill:#020202;stroke:none;stroke-width:3.79901"
     d="m 8.3075879,2.0395203 c 0.923471,0.216171 1.8185501,1.559036 2.4674541,2.216322 l 4.811534,4.873691 c 0.917612,0.9294687 1.858133,1.7547337 1.716697,3.1866447 -0.09365,0.94807 -0.716058,1.548246 -1.346579,2.186913 l -2.220708,2.249394 -4.1329831,4.186376 c -0.594448,0.602127 -1.232024,1.360538 -2.159023,0.939129 -1.637014,-0.744179 -0.23372,-2.326953 0.49349,-3.063558 l 4.8115341,-4.87369 1.295414,-1.312148 c 0.149168,-0.151113 0.424769,-0.346481 0.480733,-0.562349 0.05756,-0.222018 -0.22448,-0.427195 -0.357361,-0.56235 L 12.749004,10.066782 C 10.872566,8.1661033 8.8310909,6.3419913 7.0852849,4.3183253 c -0.828895,-0.960818 -0.118563,-2.59268 1.222303,-2.278805 z"
     id="path2" /></svg>
